<?xml version="1.0" encoding="UTF-8"?>
<svg id="Layer_2" data-name="Layer 2" xmlns="http://www.w3.org/2000/svg" viewBox="0 0 133.78 105.19">
  <defs>
    <style>
      .cls-1 {
        fill: none;
        stroke: #231f20;
        stroke-linecap: round;
        stroke-miterlimit: 10;
        stroke-width: 7px;
      }

      .cls-2 {
        fill: #231f20;
        stroke-width: 0px;
      }
    </style>
  </defs>
  <g id="Layer_1-2" data-name="Layer 1">
    <g>
      <path class="cls-2" d="m9.65,52.54c1.16.65,2.2,1.43,3.14,2.33.94.9,1.73,2.05,2.39,3.42.65,1.38,1.14,3.04,1.46,4.99.33,1.96.49,4.27.49,6.95v11.62c0,3.4.07,6.24.22,8.52.14,2.28.6,4.12,1.36,5.54.76,1.41,1.93,2.4,3.52,2.99,1.43.52,3.43.81,5.98.86.47,0,.85.39.85.87v3.7c0,.48-.39.87-.87.87h0c-3.47,0-6.36-.4-8.68-1.19-2.31-.8-4.14-1.96-5.48-3.48-1.34-1.52-2.28-3.41-2.82-5.65-.54-2.25-.81-4.86-.81-7.82v-21.08c0-1.3-.2-2.59-.6-3.86-.4-1.27-1.03-2.41-1.9-3.42s-1.95-1.85-3.25-2.5c-.69-.34-1.44-.6-2.27-.76C1.01,55.14,0,53.95,0,52.54h0c0-1.41,1.01-2.6,2.39-2.88.83-.16,1.58-.41,2.27-.76,1.3-.65,2.39-1.48,3.25-2.49.87-1.01,1.5-2.15,1.9-3.42.4-1.26.6-2.55.6-3.85v-21.04c0-2.89.27-5.48.81-7.75.54-2.28,1.48-4.17,2.82-5.69,1.34-1.52,3.16-2.67,5.48-3.47C21.83.4,24.72,0,28.19,0h0C28.67,0,29.06.39,29.06.87v3.7c0,.47-.38.86-.85.87-2.55.05-4.55.34-5.98.86-1.59.58-2.77,1.57-3.52,2.99-.76,1.41-1.21,3.26-1.36,5.54-.15,2.28-.22,5.12-.22,8.52v11.62c0,2.68-.16,4.98-.49,6.89-.33,1.92-.81,3.56-1.46,4.94-.65,1.38-1.45,2.51-2.39,3.42-.94.9-1.99,1.68-3.14,2.33Z"/>
      <path class="cls-2" d="m120.98,50.2c-.94-.9-1.73-2.04-2.39-3.42-.65-1.37-1.14-3.02-1.46-4.94-.33-1.92-.49-4.22-.49-6.89v-11.62c0-3.4-.07-6.24-.22-8.52-.14-2.28-.6-4.13-1.36-5.54-.76-1.41-1.93-2.41-3.52-2.99-1.43-.52-3.43-.81-5.98-.86-.47,0-.85-.39-.85-.87V.87c0-.48.39-.87.87-.87h0c3.47,0,6.36.4,8.68,1.19,2.31.8,4.14,1.95,5.48,3.47,1.34,1.52,2.28,3.42,2.82,5.69.54,2.28.81,4.86.81,7.75v21.04c0,1.3.2,2.59.6,3.85.4,1.27,1.03,2.4,1.9,3.42.87,1.01,1.95,1.84,3.25,2.49.69.34,1.44.6,2.27.76,1.38.27,2.39,1.47,2.39,2.88h0c0,1.41-1.01,2.6-2.39,2.88-.83.16-1.58.42-2.27.76-1.3.65-2.39,1.49-3.25,2.5s-1.5,2.16-1.9,3.42c-.4,1.27-.6,2.55-.6,3.86v21.08c0,2.97-.27,5.58-.81,7.82-.54,2.25-1.48,4.13-2.82,5.65-1.34,1.52-3.16,2.68-5.48,3.48-2.31.79-5.21,1.19-8.68,1.19h0c-.48,0-.87-.39-.87-.87v-3.7c0-.47.38-.86.85-.87,2.55-.05,4.55-.34,5.98-.86,1.59-.58,2.77-1.58,3.52-2.99.76-1.41,1.21-3.26,1.36-5.54.15-2.28.22-5.12.22-8.52v-11.62c0-2.68.16-4.99.49-6.95.33-1.95.81-3.62,1.46-4.99.65-1.37,1.45-2.51,2.39-3.42.94-.9,1.99-1.68,3.14-2.33-1.16-.65-2.2-1.43-3.14-2.33Z"/>
      <rect class="cls-2" x="75.4" y="14.62" width="14.91" height="41.4" rx="7.45" ry="7.45"/>
      <rect class="cls-2" x="44.78" y="14.62" width="14.91" height="41.4" rx="7.45" ry="7.45"/>
      <path class="cls-1" d="m48.52,81.21c3.71,1.13,11.19,2.82,20.12.75,14.49-3.35,22.18-14.1,24.02-16.85"/>
    </g>
  </g>
</svg>